<?xml version="1.0" standalone="no"?>
<!DOCTYPE svg PUBLIC "-//W3C//DTD SVG 20010904//EN"
 "http://www.w3.org/TR/2001/REC-SVG-20010904/DTD/svg10.dtd">
<svg version="1.0" xmlns="http://www.w3.org/2000/svg"
 width="687.000000pt" height="705.000000pt" viewBox="0 0 687.000000 705.000000"
 preserveAspectRatio="xMidYMid meet">

<g transform="translate(0.000000,705.000000) scale(0.100000,-0.100000)"
fill="#000000" stroke="none">
<path d="M2661 6974 c-143 -39 -202 -119 -222 -300 -9 -90 -15 -114 -35 -137
-34 -41 -30 -67 21 -142 32 -47 49 -84 56 -123 14 -74 6 -142 -17 -160 -18
-13 -18 -14 -1 -26 26 -20 21 -24 -28 -18 -31 3 -63 -2 -103 -16 -31 -11 -93
-28 -137 -37 -117 -25 -183 -51 -245 -97 -30 -23 -57 -44 -60 -48 -3 -3 -27
-24 -55 -45 -27 -22 -55 -44 -61 -50 -6 -5 -33 -29 -60 -52 -27 -23 -62 -53
-79 -68 -16 -14 -49 -42 -72 -62 -24 -19 -52 -50 -64 -69 -11 -19 -27 -34 -35
-34 -17 0 -131 -95 -198 -164 -95 -100 -186 -239 -186 -286 0 -29 37 -101 59
-114 5 -4 44 -75 85 -159 169 -338 229 -425 448 -639 l151 -147 89 -7 c94 -7
107 -21 24 -26 -54 -3 -55 -5 -79 -88 -55 -191 -94 -380 -121 -585 -50 -374
-56 -441 -42 -463 4 -7 32 -12 69 -12 67 0 69 -16 2 -22 l-40 -3 -18 -120
c-10 -66 -31 -161 -48 -212 -29 -89 -38 -109 -109 -238 -70 -128 -119 -234
-149 -324 l-31 -94 1 -266 c0 -146 4 -297 10 -336 20 -147 22 -367 5 -470 -31
-182 -20 -259 29 -203 13 16 32 28 41 28 13 0 6 -10 -22 -35 -59 -52 -97 -44
-84 20 3 19 -11 75 -20 75 -15 0 -39 -53 -49 -111 -6 -30 -15 -76 -21 -104
-12 -56 -7 -113 15 -155 34 -66 285 -140 472 -140 95 0 316 30 344 47 55 32
54 106 0 120 -14 3 -53 23 -86 44 -33 21 -90 57 -127 80 -80 49 -96 65 -80 81
7 7 12 26 12 44 0 43 -33 63 -180 111 -11 4 -9 7 9 14 22 9 23 12 17 74 -3 36
-9 95 -12 132 -6 66 1 140 32 333 27 165 81 385 136 555 59 178 79 215 167
305 81 83 106 127 117 210 4 37 22 84 52 140 87 163 150 287 157 309 5 18 1
24 -26 35 l-33 14 57 7 c55 7 57 8 63 44 7 39 31 74 45 65 5 -3 9 -18 9 -34 0
-54 6 -59 67 -53 41 5 54 3 49 -5 -4 -7 -13 -12 -21 -12 -21 0 -28 -19 -17
-48 5 -15 17 -56 27 -92 9 -36 22 -87 30 -115 7 -27 21 -93 30 -145 9 -52 24
-120 33 -150 14 -45 17 -92 14 -265 -3 -234 10 -342 58 -505 61 -208 75 -288
86 -495 3 -73 11 -130 20 -147 12 -23 12 -28 1 -28 -7 0 -18 5 -25 12 -20 20
-51 -13 -83 -87 -26 -59 -32 -87 -36 -180 -5 -97 -3 -112 12 -125 13 -11 55
-14 189 -15 163 0 173 1 200 23 36 28 87 29 111 2 17 -19 31 -20 219 -20 177
0 206 3 243 20 57 25 82 74 62 116 -19 39 -75 63 -184 79 -104 15 -110 17
-190 58 -87 44 -135 85 -155 131 -20 48 -41 68 -67 64 -17 -3 -18 9 -16 202 0
113 4 311 8 440 6 180 4 251 -6 305 -18 93 -15 570 5 755 8 74 12 138 10 142
-3 5 -58 9 -122 9 -64 1 -130 5 -147 9 l-30 8 35 1 c19 1 85 3 145 5 116 2
196 18 216 43 38 44 24 609 -22 933 -18 130 -13 122 -67 120 -70 -3 -73 -2
-71 18 3 23 -21 103 -38 123 -16 19 -17 71 -1 87 9 9 9 15 0 24 -19 19 -14 49
8 55 11 3 20 11 20 18 0 7 10 15 22 18 19 5 20 8 7 23 -41 49 -52 331 -18 490
11 54 27 109 35 122 9 13 14 37 12 54 -2 17 2 33 7 35 6 2 10 -22 10 -59 0
-54 5 -71 33 -114 35 -55 42 -116 21 -171 -33 -84 -43 -144 -44 -252 0 -102
-2 -115 -20 -125 -10 -6 -25 -17 -33 -23 -7 -7 -18 -13 -23 -13 -18 0 -9 -38
14 -53 l22 -15 -27 -12 c-37 -17 -43 -48 -12 -61 14 -5 30 -9 37 -9 6 0 1 -9
-11 -20 -12 -12 -22 -30 -22 -42 0 -18 4 -19 35 -14 38 7 49 -10 21 -34 -22
-17 -8 -40 23 -40 20 0 42 15 80 54 58 62 75 97 85 174 7 52 30 147 61 252 9
30 18 66 21 80 3 14 13 48 22 75 11 34 16 89 16 175 1 119 -1 129 -31 200 -17
41 -34 87 -37 102 -3 14 -17 39 -30 55 -19 22 -22 33 -14 47 6 11 6 50 -1 117
-6 55 -11 137 -11 182 0 141 -46 254 -137 337 -109 101 -197 176 -219 188 -28
15 -32 63 -9 127 8 22 15 50 15 62 0 21 108 240 134 273 7 8 18 34 26 57 10
34 10 48 0 72 -8 20 -10 53 -7 93 4 35 9 98 13 141 14 160 -42 237 -208 288
-74 22 -142 23 -217 3z m56 -1110 c-3 -3 -12 -4 -19 -1 -8 3 -5 6 6 6 11 1 17
-2 13 -5z m168 -24 c-3 -5 -10 -10 -16 -10 -5 0 -9 5 -9 10 0 6 7 10 16 10 8
0 12 -4 9 -10z m-102 -7 c-7 -2 -19 -2 -25 0 -7 3 -2 5 12 5 14 0 19 -2 13 -5z
m-1224 -342 c19 -12 1 -20 -32 -14 -21 4 -25 8 -15 14 17 11 29 11 47 0z m68
-34 c4 -8 16 -17 26 -20 10 -4 15 -11 12 -17 -3 -5 0 -10 8 -10 13 0 137 -123
137 -136 0 -3 6 -11 13 -18 7 -8 21 -58 31 -112 29 -161 52 -279 89 -454 56
-266 58 -327 11 -349 -13 -6 -24 -17 -24 -26 0 -26 -39 -57 -63 -49 -105 31
-317 522 -317 735 0 47 0 48 53 73 28 15 86 48 127 74 61 39 76 53 78 76 2 19
-2 32 -12 38 -9 5 -16 13 -16 18 0 21 -164 170 -187 170 -7 0 -13 5 -13 10 0
15 38 12 47 -3z m1653 -462 c0 -12 -64 -75 -76 -75 -17 0 -19 20 -1 20 6 1 23
14 37 30 21 27 40 38 40 25z m-100 -95 c0 -5 -16 -10 -36 -10 -21 0 -33 4 -29
10 3 6 19 10 36 10 16 0 29 -4 29 -10z m-955 -607 c31 -5 35 -8 20 -14 -26
-10 -158 -11 -182 -2 -40 16 87 29 162 16z m-205 -28 c11 -13 8 -15 -14 -15
-16 0 -26 5 -26 15 0 8 6 15 14 15 7 0 19 -7 26 -15z m339 -4 c7 -5 9 -11 4
-14 -14 -9 -83 4 -77 14 7 11 55 11 73 0z m70 -30 c7 -5 9 -11 4 -14 -13 -8
-53 3 -53 14 0 11 31 11 49 0z m-134 -31 c16 -7 12 -9 -18 -9 -23 -1 -36 3
-32 9 7 12 23 12 50 0z m209 -15 c14 -13 26 -34 26 -45 0 -30 -24 -19 -28 12
-2 18 -11 28 -28 32 -13 4 -24 11 -24 16 0 18 27 11 54 -15z m-70 -28 c49 -14
76 -37 76 -66 0 -9 13 -29 29 -44 33 -32 31 -62 -4 -71 -15 -4 -25 -15 -27
-29 -2 -17 -11 -23 -38 -25 -19 -2 -39 -10 -43 -18 -13 -22 -34 -16 -41 11 -4
15 -18 30 -33 36 -19 7 -23 13 -15 21 8 8 26 6 67 -10 63 -24 85 -20 85 14 0
17 6 24 19 24 55 0 24 44 -69 101 -30 18 -61 39 -68 46 -7 7 -20 13 -28 13 -9
0 -12 5 -8 11 6 11 13 10 98 -14z m-74 -77 c0 -5 -9 -10 -20 -10 -11 0 -20 5
-20 10 0 6 9 10 20 10 11 0 20 -4 20 -10z m72 -40 c32 -29 15 -36 -26 -10 -20
12 -36 24 -36 26 0 12 44 1 62 -16z m-122 -50 c0 -5 -6 -10 -14 -10 -8 0 -18
5 -21 10 -3 6 3 10 14 10 12 0 21 -4 21 -10z m-68 -62 c-6 -6 -33 -7 -68 -2
l-59 8 45 6 c56 6 95 1 82 -12z m71 -18 c8 0 8 -3 0 -11 -13 -13 -56 -2 -47
12 3 6 13 8 21 5 8 -3 20 -6 26 -6z m60 -37 c-7 -2 -19 -2 -25 0 -7 3 -2 5 12
5 14 0 19 -2 13 -5z m-318 -1083 c8 -13 -85 -13 -105 0 -11 7 1 10 42 10 31 0
60 -4 63 -10z m155 -30 c0 -12 -87 -12 -115 0 -14 6 1 9 48 9 38 1 67 -3 67
-9z m450 0 c0 -12 -27 -12 -55 0 -16 7 -13 9 18 9 20 1 37 -3 37 -9z m110 -30
c0 -5 -15 -10 -34 -10 -19 0 -38 5 -41 10 -4 6 10 10 34 10 23 0 41 -4 41 -10z
m294 -1949 c8 -12 -28 -51 -48 -51 -9 0 -16 5 -16 10 0 6 7 10 15 10 8 0 19 9
25 20 12 22 16 24 24 11z m-209 -41 c4 -6 -5 -10 -19 -10 -14 0 -26 5 -26 10
0 6 9 10 19 10 11 0 23 -4 26 -10z m120 -30 c-3 -5 -26 -10 -50 -10 -24 0 -47
5 -50 10 -4 6 15 10 50 10 35 0 54 -4 50 -10z m-1390 -120 c-28 -12 -75 -12
-75 0 0 6 21 10 48 9 35 0 42 -3 27 -9z m-86 -31 c-18 -11 -39 -11 -39 0 0 11
31 20 44 13 4 -2 2 -8 -5 -13z"/>
<path d="M4453 6738 c-72 -28 -125 -77 -157 -143 -33 -69 -35 -166 -7 -335 28
-167 56 -228 151 -330 29 -30 61 -73 72 -94 20 -39 20 -41 3 -95 -20 -63 -47
-108 -99 -166 -20 -22 -36 -46 -36 -52 0 -19 -14 -16 -28 7 -7 12 -8 20 -2 20
5 0 10 7 10 15 0 17 -22 20 -48 5 -29 -16 -153 -70 -160 -70 -18 0 -74 -63
-90 -102 -27 -62 -50 -198 -56 -318 -3 -58 -10 -118 -15 -135 -70 -210 -76
-238 -76 -355 0 -107 3 -121 34 -200 19 -47 52 -113 73 -148 21 -34 38 -64 38
-67 0 -2 14 -28 31 -57 32 -53 32 -54 31 -188 l0 -134 36 -34 36 -34 -3 -137
c-9 -348 -5 -720 7 -806 34 -239 53 -340 89 -465 14 -50 28 -82 99 -220 41
-80 53 -111 60 -146 3 -19 10 -37 15 -40 5 -3 9 -12 9 -20 0 -8 7 -31 17 -52
12 -26 16 -60 14 -117 -2 -79 4 -132 34 -290 9 -44 23 -152 32 -240 13 -130
14 -175 5 -239 -13 -86 -42 -143 -77 -148 -13 -2 -28 -20 -42 -49 -43 -90
-185 -170 -345 -194 -112 -17 -174 -39 -189 -66 -15 -30 -10 -67 14 -94 34
-41 114 -55 308 -55 164 0 166 0 189 25 32 34 88 34 120 0 22 -23 30 -25 114
-25 107 0 134 -10 96 -37 -14 -10 -34 -23 -45 -28 -11 -6 -29 -27 -40 -47 -24
-44 -15 -80 28 -112 27 -20 40 -21 240 -21 199 1 215 2 254 23 22 12 43 27 45
34 3 9 28 13 81 13 66 0 79 3 99 23 22 21 23 30 22 150 -2 141 -18 201 -63
239 -24 19 -26 27 -26 100 0 43 6 105 13 138 8 33 18 79 23 103 55 250 66 547
29 740 -11 57 -25 112 -30 122 -6 10 -10 34 -10 54 0 19 -6 47 -14 63 -38 73
-90 220 -102 283 -4 25 -8 223 -9 440 0 217 -4 445 -9 505 -8 106 -8 112 17
165 32 68 57 174 57 243 0 96 -52 295 -101 386 -18 33 -18 36 -1 45 9 5 38 27
63 50 25 23 93 79 153 125 128 101 254 222 321 311 27 36 52 67 56 70 4 3 46
63 93 134 109 163 109 168 17 311 -73 113 -169 220 -505 563 -91 94 -163 142
-210 142 -14 0 -28 5 -31 10 -3 6 3 10 14 10 33 0 33 15 -3 87 -67 135 -85
224 -93 453 -5 147 -8 170 -30 212 -23 48 -75 91 -125 103 -13 3 -39 28 -58
55 -19 27 -53 63 -76 79 -96 70 -245 91 -351 49z m531 -344 c16 -16 21 -45 10
-57 -10 -10 -54 24 -54 42 0 33 20 40 44 15z m56 -634 l25 -20 -37 0 c-31 0
-38 4 -38 20 0 25 18 25 50 0z m100 -40 c0 -5 -13 -10 -29 -10 -17 0 -33 5
-36 10 -4 6 8 10 29 10 20 0 36 -4 36 -10z m-290 -60 c0 -5 -4 -10 -10 -10 -5
0 -10 5 -10 10 0 6 5 10 10 10 6 0 10 -4 10 -10z m84 -35 c-4 -8 -8 -15 -10
-15 -2 0 -4 7 -4 15 0 8 4 15 10 15 5 0 7 -7 4 -15z m-114 -17 c0 -16 -3 -19
-11 -11 -6 6 -8 16 -5 22 11 17 16 13 16 -11z m-33 -60 c-3 -7 -5 -2 -5 12 0
14 2 19 5 13 2 -7 2 -19 0 -25z m123 13 c0 -11 -4 -23 -10 -26 -6 -4 -10 5
-10 19 0 14 5 26 10 26 6 0 10 -9 10 -19z m-150 -47 c0 -8 -5 -12 -10 -9 -6 4
-8 11 -5 16 9 14 15 11 15 -7z m-410 -29 c0 -8 -4 -15 -10 -15 -5 0 -10 7 -10
15 0 8 5 15 10 15 6 0 10 -7 10 -15z m385 6 c3 -5 1 -12 -5 -16 -5 -3 -10 1
-10 9 0 18 6 21 15 7z m-38 -53 c-3 -8 -6 -5 -6 6 -1 11 2 17 5 13 3 -3 4 -12
1 -19z m-377 -10 c0 -16 -3 -19 -11 -11 -6 6 -8 16 -5 22 11 17 16 13 16 -11z
m347 -30 c-3 -8 -6 -5 -6 6 -1 11 2 17 5 13 3 -3 4 -12 1 -19z m-380 -35 c-3
-10 -5 -4 -5 12 0 17 2 24 5 18 2 -7 2 -21 0 -30z m623 1 c0 -8 -4 -14 -10
-14 -5 0 -10 9 -10 21 0 11 5 17 10 14 6 -3 10 -13 10 -21z m-270 6 c0 -5 -5
-10 -11 -10 -5 0 -7 5 -4 10 3 6 8 10 11 10 2 0 4 -4 4 -10z m-45 -30 c-3 -5
-10 -10 -16 -10 -5 0 -9 5 -9 10 0 6 7 10 16 10 8 0 12 -4 9 -10z m-50 -30
c-3 -5 -13 -10 -21 -10 -8 0 -12 5 -9 10 3 6 13 10 21 10 8 0 12 -4 9 -10z
m395 0 c0 -5 -4 -10 -10 -10 -5 0 -10 5 -10 10 0 6 5 10 10 10 6 0 10 -4 10
-10z m-465 -30 c-3 -5 -15 -10 -26 -10 -10 0 -19 5 -19 10 0 6 12 10 26 10 14
0 23 -4 19 -10z m-112 -27 c-7 -2 -21 -2 -30 0 -10 3 -4 5 12 5 17 0 24 -2 18
-5z m687 -63 c0 -5 -2 -10 -4 -10 -3 0 -8 5 -11 10 -3 6 -1 10 4 10 6 0 11 -4
11 -10z m40 -24 c0 -11 -19 -15 -25 -6 -3 5 1 10 9 10 9 0 16 -2 16 -4z m43
-33 c-7 -2 -19 -2 -25 0 -7 3 -2 5 12 5 14 0 19 -2 13 -5z m44 -29 c-3 -3 -12
-4 -19 -1 -8 3 -5 6 6 6 11 1 17 -2 13 -5z m201 -81 c33 -38 94 -93 136 -123
45 -33 76 -62 76 -73 0 -19 -54 -156 -75 -192 -95 -157 -253 -359 -334 -428
-41 -34 -114 -39 -131 -8 -22 42 -5 145 42 251 14 30 32 87 42 125 34 139 37
150 42 168 4 13 -4 21 -28 32 l-33 14 30 1 c38 0 51 9 59 40 4 14 19 56 33 94
14 38 26 83 25 99 -1 27 28 66 49 67 4 0 34 -30 67 -67z m-145 50 c-7 -2 -19
-2 -25 0 -7 3 -2 5 12 5 14 0 19 -2 13 -5z m-628 -203 c-3 -5 -24 -10 -46 -10
-21 0 -39 5 -39 10 0 6 21 10 46 10 27 0 43 -4 39 -10z m-225 -30 c-20 -13
-50 -13 -50 0 0 6 15 10 33 10 24 0 28 -3 17 -10z m530 0 c0 -12 -74 -12 -110
0 -18 6 -7 8 43 9 38 1 67 -3 67 -9z m143 -32 c-15 -7 -30 -7 -50 0 -26 10
-24 10 22 11 42 0 46 -2 28 -11z m-817 -83 c2 -39 11 -101 20 -140 19 -83 25
-330 8 -359 -10 -16 -13 -13 -28 25 -10 23 -21 61 -26 83 -5 23 -18 77 -30
121 -27 100 -29 161 -6 250 30 119 57 127 62 20z m614 -2660 c0 -14 6 -25 13
-25 7 0 24 -32 37 -71 14 -39 28 -73 32 -76 5 -2 8 -12 8 -21 0 -9 7 -30 15
-46 8 -15 15 -36 15 -46 0 -9 8 -28 18 -41 10 -13 22 -33 26 -44 11 -31 46
-351 46 -428 0 -73 22 -199 45 -260 17 -44 19 -155 4 -212 -6 -22 -13 -57 -16
-78 -4 -31 -11 -41 -33 -49 -26 -8 -60 -58 -60 -86 0 -12 -28 -42 -39 -42 -5
0 -11 15 -15 33 -3 17 -20 65 -37 104 -23 54 -37 73 -51 73 -33 0 -41 44 -30
170 11 117 23 183 60 323 35 130 47 271 33 384 -12 100 -36 222 -51 258 -4 11
-12 54 -18 95 -5 41 -13 83 -17 93 -4 10 -3 17 4 17 6 0 11 -11 11 -25z"/>
</g>
</svg>
